<!DOCTYPE svg PUBLIC "-//W3C//DTD SVG 20010904//EN" "http://www.w3.org/TR/2001/REC-SVG-20010904/DTD/svg10.dtd">
<svg version="1.0" xmlns="http://www.w3.org/2000/svg" width="1200px" height="1200px" viewBox="0 0 12000 12000" preserveAspectRatio="xMidYMid meet">
<g id="layer101" fill="#000000" stroke="none">
 <path d="M0 11312 l0 -307 1060 -1060 c583 -583 1060 -1065 1060 -1071 0 -7 -20 -27 -45 -45 -469 -347 -861 -722 -1266 -1209 -59 -70 -258 -340 -333 -448 -203 -299 -456 -740 -456 -797 0 -53 235 -468 415 -735 125 -184 156 -227 262 -365 562 -736 1266 -1346 2088 -1810 137 -78 450 -230 615 -299 102 -43 194 -82 205 -87 20 -9 195 -71 305 -109 99 -33 224 -71 380 -114 103 -29 316 -77 515 -117 386 -77 1039 -121 1490 -99 316 15 718 59 905 100 25 5 81 17 125 25 82 16 137 29 285 66 140 34 193 49 345 95 28 9 61 18 75 20 22 4 175 -145 1310 -1280 l1285 -1286 307 0 308 0 0 313 0 312 -5308 5308 -5307 5307 -313 0 -312 0 0 -308z m3279 -3586 l345 -345 -60 -86 c-123 -177 -248 -399 -309 -545 -10 -25 -26 -63 -36 -85 -78 -181 -149 -456 -187 -720 -24 -169 -24 -611 0 -780 22 -149 59 -339 78 -395 40 -121 72 -232 67 -236 -8 -9 -227 129 -387 244 -471 336 -900 756 -1244 1217 -114 152 -256 363 -256 380 0 8 34 65 76 127 334 494 719 913 1176 1281 132 106 376 287 388 287 3 0 160 -155 349 -344z m2068 -2068 c486 -486 643 -649 643 -666 0 -24 -19 -97 -46 -179 -88 -268 -305 -514 -572 -647 -483 -242 -1092 -93 -1405 342 -61 85 -138 225 -155 283 -65 217 -80 334 -62 492 43 404 272 736 625 906 66 32 147 66 180 75 97 26 129 34 140 35 5 1 299 -288 652 -641z"/>
 <path d="M5750 10114 c-30 -2 -127 -9 -215 -14 -337 -22 -700 -75 -1000 -145 -38 -9 -81 -19 -95 -22 -43 -9 -313 -83 -355 -97 -22 -7 -68 -22 -102 -32 -35 -11 -63 -21 -63 -24 0 -3 201 -206 448 -452 l447 -448 80 15 c350 66 529 87 883 106 442 24 1022 -30 1462 -136 36 -9 85 -20 109 -26 25 -5 59 -14 75 -19 17 -5 78 -24 136 -41 200 -59 370 -119 555 -196 33 -14 78 -32 100 -41 167 -70 723 -372 786 -428 8 -8 18 -14 22 -14 7 0 184 -123 272 -188 453 -341 882 -775 1211 -1227 94 -129 204 -296 204 -310 0 -8 -39 -71 -87 -142 -404 -597 -903 -1101 -1493 -1512 l-92 -64 400 -400 400 -400 118 88 c810 601 1488 1392 1964 2290 29 55 59 107 66 115 20 23 20 27 3 46 -9 11 -40 64 -69 119 -165 310 -350 603 -568 895 -119 160 -146 194 -292 365 -141 166 -400 435 -570 591 -375 344 -826 668 -1290 926 -178 99 -630 318 -658 318 -4 0 -18 6 -32 13 -14 7 -47 21 -75 31 -27 10 -63 24 -80 31 -64 27 -206 76 -345 120 -80 25 -158 50 -175 55 -45 14 -343 90 -400 102 -370 77 -646 116 -960 138 -154 11 -638 20 -725 14z"/>
 <path d="M5793 8540 c-78 -4 -173 -13 -210 -20 -37 -6 -104 -18 -148 -26 -95 -17 -167 -34 -177 -43 -4 -4 813 -827 1816 -1830 l1824 -1824 12 54 c54 235 71 384 77 647 6 303 -15 499 -84 782 -26 108 -92 314 -122 385 -10 22 -26 60 -36 85 -65 157 -276 516 -362 617 -10 11 -45 55 -78 96 -131 165 -406 418 -599 552 -243 167 -566 324 -821 399 -33 10 -71 22 -85 26 -38 14 -246 58 -325 70 -207 31 -454 42 -682 30z"/>
 </g>
<g id="layer102" fill="#ffffff" stroke="none">
 <path d="M0 11810 l0 -190 313 0 312 0 5308 -5308 5307 -5307 0 -313 0 -312 -308 0 -307 0 -1285 1286 c-1135 1135 -1288 1284 -1310 1280 -14 -2 -47 -11 -75 -20 -152 -46 -205 -61 -345 -95 -148 -37 -203 -50 -285 -66 -44 -8 -100 -20 -125 -25 -187 -41 -589 -85 -905 -100 -451 -22 -1104 22 -1490 99 -199 40 -412 88 -515 117 -156 43 -281 81 -380 114 -110 38 -285 100 -305 109 -11 5 -103 44 -205 87 -165 69 -478 221 -615 299 -1094 617 -1977 1493 -2597 2575 -107 186 -168 308 -168 335 0 57 253 498 456 797 75 108 274 378 333 448 405 487 797 862 1266 1209 25 18 45 38 45 45 0 6 -477 488 -1060 1071 l-1060 1060 0 -5503 0 -5502 6000 0 6000 0 0 6000 0 6000 -6000 0 -6000 0 0 -190z m6475 -1710 c314 -22 590 -61 960 -138 57 -12 355 -88 400 -102 17 -5 95 -30 175 -55 139 -44 281 -93 345 -120 17 -7 53 -21 80 -31 28 -10 61 -24 75 -31 14 -7 28 -13 32 -13 13 0 185 -78 363 -165 506 -247 960 -544 1400 -918 266 -226 541 -501 755 -752 146 -171 173 -205 292 -365 233 -313 416 -605 614 -980 19 -37 24 -69 14 -85 -4 -5 -31 -55 -60 -110 -477 -899 -1154 -1689 -1964 -2290 l-118 -88 -400 400 -400 400 92 64 c590 411 1089 915 1493 1512 48 71 87 134 87 142 0 14 -110 181 -204 310 -329 452 -758 886 -1211 1227 -88 65 -265 188 -272 188 -4 0 -14 6 -22 14 -63 56 -619 358 -786 428 -22 9 -67 27 -100 41 -185 77 -355 137 -555 196 -58 17 -119 36 -136 41 -16 5 -50 14 -75 19 -24 6 -73 17 -109 26 -440 106 -1020 160 -1462 136 -354 -19 -533 -40 -883 -106 l-80 -15 -447 448 c-247 246 -448 449 -448 452 0 3 28 13 63 24 34 10 80 25 102 32 42 14 312 88 355 97 14 3 57 13 95 22 300 70 663 123 1000 145 88 5 185 12 215 14 87 6 571 -3 725 -14z m-155 -1570 c161 -18 403 -63 480 -90 14 -4 52 -16 85 -26 255 -75 578 -232 821 -399 193 -134 468 -387 599 -552 33 -41 68 -85 78 -96 86 -101 297 -460 362 -617 10 -25 26 -63 36 -85 30 -71 96 -277 122 -385 69 -283 90 -479 84 -782 -6 -263 -23 -412 -77 -647 l-12 -54 -1824 1824 c-1003 1003 -1820 1826 -1816 1830 10 9 82 26 177 43 44 8 111 20 148 26 151 27 529 32 737 10z"/>
 <path d="M2805 7984 c-565 -406 -1046 -901 -1439 -1482 -42 -62 -76 -119 -76 -127 0 -17 142 -228 256 -380 344 -461 773 -881 1244 -1217 160 -115 379 -253 387 -244 5 4 -27 115 -67 236 -19 56 -56 246 -78 395 -24 169 -24 611 0 780 38 264 109 539 187 720 10 22 26 60 36 85 61 146 186 368 309 545 l60 86 -345 345 c-189 189 -346 344 -349 344 -3 0 -59 -39 -125 -86z"/>
 <path d="M4650 6289 c-128 -34 -168 -48 -275 -100 -353 -170 -582 -502 -625 -906 -18 -158 -3 -275 62 -492 17 -58 94 -198 155 -283 313 -435 922 -584 1405 -342 267 133 484 379 572 647 27 82 46 155 46 179 0 17 -157 180 -643 666 -353 353 -647 642 -652 641 -6 0 -26 -5 -45 -10z"/>
 </g>

</svg>