<!DOCTYPE svg PUBLIC "-//W3C//DTD SVG 20010904//EN" "http://www.w3.org/TR/2001/REC-SVG-20010904/DTD/svg10.dtd">
<svg version="1.0" xmlns="http://www.w3.org/2000/svg" width="150px" height="150px" viewBox="0 0 1500 1500" preserveAspectRatio="xMidYMid meet">
<g id="layer101" fill="#000000" stroke="none">
 <path d="M0 750 l0 -750 750 0 750 0 0 750 0 750 -750 0 -750 0 0 -750z"/>
 </g>
<g id="layer102" fill="#ffffff" stroke="none">
 <path d="M0 750 l0 -750 750 0 750 0 0 750 0 750 -750 0 -750 0 0 -750z m743 639 c27 -7 37 -15 37 -31 0 -18 -4 -20 -30 -14 l-31 6 7 -98 c5 -85 -4 -189 -22 -235 -3 -8 12 -12 47 -12 49 0 52 1 71 39 11 21 35 99 55 175 41 161 47 173 76 169 29 -4 92 -131 138 -278 l34 -110 43 0 42 0 0 160 0 160 -25 10 c-37 14 -31 38 11 46 86 16 294 -28 294 -62 0 -22 -14 -23 -70 -4 -30 11 -81 19 -114 20 l-58 0 6 -31 c3 -17 6 -51 6 -75 l0 -44 64 0 c41 0 68 -5 75 -13 17 -22 3 -27 -71 -27 l-68 0 0 -71 0 -72 71 7 c39 4 82 12 96 19 19 9 26 8 33 -3 25 -40 -59 -62 -255 -67 -116 -3 -155 0 -169 10 -22 16 -14 37 15 37 10 0 19 7 19 14 0 26 -51 179 -83 246 l-30 65 -14 -50 c-16 -57 -72 -240 -79 -259 -4 -9 2 -12 18 -9 30 5 53 -11 45 -32 -6 -13 -23 -16 -104 -16 -54 -1 -124 -1 -156 -2 -41 -2 -60 2 -67 13 -13 20 5 38 34 33 21 -4 24 0 34 53 13 61 16 212 6 262 -5 25 -11 30 -32 29 -41 -3 -41 30 0 42 45 13 57 13 101 0z m-203 -27 c14 -10 32 -38 40 -60 13 -38 13 -44 -2 -58 -21 -22 -34 -12 -42 31 -10 50 -37 65 -122 65 l-71 0 -7 -31 c-8 -40 -8 -189 1 -257 l6 -52 33 6 c26 5 34 3 34 -9 0 -21 -19 -33 -62 -41 -50 -9 -88 2 -88 25 0 10 6 19 13 19 10 0 13 35 13 165 -1 163 -1 165 -23 165 -25 0 -40 17 -25 32 14 14 137 27 212 22 42 -2 74 -10 90 -22z m-88 -422 c43 -12 100 -72 119 -126 9 -25 14 -83 14 -156 0 -106 2 -118 18 -118 22 0 23 -36 1 -44 -24 -9 -73 -7 -94 4 -23 12 -16 40 10 40 38 0 35 213 -4 288 -26 51 -62 72 -121 72 -59 0 -88 -22 -99 -76 -10 -47 10 -149 44 -221 24 -53 33 -64 47 -58 32 12 38 10 38 -10 0 -42 -104 -57 -136 -19 -12 15 -4 34 15 34 9 0 6 14 -10 48 -30 62 -43 123 -44 192 0 123 81 183 202 150z m-384 -448 c2 -18 5 -32 6 -32 2 0 17 5 34 11 40 14 106 -4 127 -34 23 -32 19 -84 -8 -111 -13 -12 -45 -31 -72 -41 -90 -32 -116 -85 -76 -151 26 -42 78 -60 126 -44 27 9 35 17 35 35 0 26 24 50 40 40 5 -3 10 -33 10 -66 0 -51 -2 -59 -19 -59 -11 0 -21 5 -23 11 -3 9 -9 9 -25 0 -31 -16 -89 -14 -130 6 -63 29 -96 111 -74 183 10 34 19 42 69 65 105 48 107 50 110 77 4 32 -24 51 -70 46 -31 -3 -36 -8 -57 -62 -10 -23 -14 -26 -26 -16 -11 9 -15 34 -15 90 0 42 3 80 7 84 14 13 28 -1 31 -32z m527 -57 c22 -11 41 -28 43 -37 4 -22 -19 -23 -58 -3 -16 8 -64 18 -106 22 l-77 6 6 -39 c4 -21 7 -56 7 -76 l0 -38 64 0 c42 0 67 -5 75 -14 18 -22 -4 -31 -74 -31 l-60 0 -3 -69 -3 -69 75 6 c41 3 83 10 94 16 15 8 23 7 32 -4 9 -11 7 -17 -12 -29 -52 -33 -270 -50 -281 -22 -7 18 1 26 25 26 17 0 18 12 18 165 l0 165 -25 10 c-25 10 -31 21 -17 34 4 5 59 6 122 4 88 -3 124 -9 155 -23z m323 10 c57 -17 89 -42 73 -58 -6 -6 -23 -4 -51 7 -23 9 -74 19 -113 22 l-72 7 3 -77 4 -76 61 0 c67 0 92 -10 85 -31 -3 -10 -24 -14 -74 -14 l-69 0 -3 -69 -3 -69 75 6 c41 3 83 10 93 15 27 15 51 -1 34 -22 -22 -26 -83 -40 -186 -40 -85 -1 -100 1 -103 16 -2 11 5 18 20 20 21 3 23 9 26 68 2 36 1 111 -3 168 -6 90 -9 102 -25 102 -22 0 -34 15 -25 30 10 16 195 12 253 -5z"/>
 </g>

</svg>